<?xml version="1.0" encoding="utf-8"?>
<!-- Generator: Adobe Illustrator 24.0.1, SVG Export Plug-In . SVG Version: 6.00 Build 0)  -->
<svg version="1.1" id="Layer_1" xmlns="http://www.w3.org/2000/svg" xmlns:xlink="http://www.w3.org/1999/xlink" x="0px" y="0px"
	 viewBox="0 0 140 43" style="enable-background:new 0 0 140 43;" xml:space="preserve">
<style type="text/css">
	.st0{fill:#999999;}
	.st1{fill:#FFFFFF;stroke:#999999;stroke-miterlimit:10;}
</style>
<path class="st0" d="M68.91,20.92h-5.59l-0.03-2.35h5.07c0.84,0,1.57-0.14,2.2-0.42c0.63-0.28,1.11-0.69,1.45-1.21
	c0.35-0.54,0.53-1.17,0.53-1.91c0-0.81-0.16-1.46-0.47-1.97c-0.3-0.51-0.77-0.89-1.41-1.12c-0.63-0.24-1.42-0.36-2.39-0.36h-4.3
	v19.66h-2.92V9.18h7.22c1.13,0,2.14,0.12,3.03,0.35c0.89,0.22,1.64,0.58,2.26,1.06c0.63,0.47,1.1,1.08,1.42,1.82
	c0.32,0.74,0.48,1.62,0.48,2.65c0,0.91-0.23,1.73-0.7,2.47c-0.46,0.73-1.11,1.32-1.94,1.79c-0.82,0.46-1.78,0.76-2.88,0.89
	L68.91,20.92z"/>
<path class="st0" d="M68.77,31.24h-6.6l1.65-2.38h4.95c0.93,0,1.72-0.16,2.36-0.48c0.66-0.32,1.16-0.78,1.5-1.36
	c0.34-0.6,0.51-1.3,0.51-2.11c0-0.82-0.15-1.52-0.44-2.12c-0.29-0.6-0.75-1.06-1.38-1.38c-0.63-0.32-1.43-0.48-2.42-0.48h-4.17
	l0.03-2.35h5.69l0.62,0.85c1.06,0.09,1.96,0.39,2.7,0.91c0.74,0.5,1.3,1.15,1.68,1.94c0.39,0.79,0.59,1.66,0.59,2.61
	c0,1.37-0.3,2.53-0.91,3.48c-0.6,0.94-1.44,1.66-2.53,2.15C71.53,31,70.24,31.24,68.77,31.24z"/>
<path class="st0" d="M79.21,23.23v-0.35c0-1.18,0.17-2.28,0.52-3.29c0.34-1.02,0.84-1.9,1.48-2.65c0.65-0.76,1.43-1.34,2.35-1.76
	c0.92-0.42,1.95-0.64,3.09-0.64c1.15,0,2.19,0.21,3.11,0.64c0.93,0.41,1.72,1,2.36,1.76c0.66,0.75,1.16,1.63,1.5,2.65
	c0.34,1.01,0.51,2.11,0.51,3.29v0.35c0,1.18-0.17,2.28-0.51,3.29c-0.34,1.01-0.84,1.89-1.5,2.65c-0.65,0.75-1.43,1.33-2.35,1.76
	c-0.91,0.41-1.94,0.62-3.09,0.62c-1.15,0-2.19-0.21-3.1-0.62c-0.92-0.42-1.71-1.01-2.36-1.76c-0.65-0.76-1.14-1.64-1.48-2.65
	C79.38,25.5,79.21,24.41,79.21,23.23z"/>
<path class="st1" d="M82.01,22.88v0.35c0,0.82,0.1,1.59,0.29,2.32c0.19,0.72,0.48,1.35,0.86,1.91c0.39,0.56,0.88,0.99,1.47,1.32
	c0.59,0.31,1.27,0.47,2.04,0.47c0.77,0,1.44-0.16,2.01-0.47c0.59-0.32,1.07-0.76,1.45-1.32c0.38-0.56,0.67-1.19,0.86-1.91
	c0.2-0.73,0.3-1.5,0.3-2.32v-0.35c0-0.81-0.1-1.57-0.3-2.29c-0.19-0.73-0.48-1.37-0.88-1.92c-0.38-0.57-0.87-1.01-1.45-1.33
	c-0.58-0.32-1.25-0.48-2.03-0.48c-0.77,0-1.44,0.16-2.03,0.48c-0.58,0.32-1.06,0.77-1.45,1.33c-0.38,0.56-0.67,1.2-0.86,1.92
	C82.1,21.31,82.01,22.07,82.01,22.88z"/>
<path class="st0" d="M96.9,23.23v-0.35c0-1.18,0.17-2.28,0.51-3.29c0.34-1.02,0.84-1.9,1.48-2.65c0.65-0.76,1.43-1.34,2.35-1.76
	c0.92-0.42,1.95-0.64,3.09-0.64c1.15,0,2.19,0.21,3.11,0.64c0.93,0.41,1.72,1,2.36,1.76c0.66,0.75,1.16,1.63,1.5,2.65
	c0.34,1.01,0.51,2.11,0.51,3.29v0.35c0,1.18-0.17,2.28-0.51,3.29c-0.34,1.01-0.84,1.89-1.5,2.65c-0.65,0.75-1.43,1.33-2.35,1.76
	c-0.91,0.41-1.94,0.62-3.09,0.62c-1.15,0-2.19-0.21-3.1-0.62c-0.92-0.42-1.71-1.01-2.36-1.76c-0.65-0.76-1.14-1.64-1.48-2.65
	C97.07,25.5,96.9,24.41,96.9,23.23z"/>
<path class="st1" d="M99.7,22.88v0.35c0,0.82,0.1,1.59,0.29,2.32c0.19,0.72,0.48,1.35,0.86,1.91c0.39,0.56,0.88,0.99,1.47,1.32
	c0.59,0.31,1.27,0.47,2.04,0.47c0.77,0,1.44-0.16,2.01-0.47c0.59-0.32,1.07-0.76,1.45-1.32c0.38-0.56,0.67-1.19,0.86-1.91
	c0.2-0.73,0.3-1.5,0.3-2.32v-0.35c0-0.81-0.1-1.57-0.3-2.29c-0.19-0.73-0.48-1.37-0.88-1.92c-0.38-0.57-0.87-1.01-1.45-1.33
	c-0.58-0.32-1.25-0.48-2.03-0.48c-0.77,0-1.44,0.16-2.03,0.48c-0.58,0.32-1.06,0.77-1.45,1.33c-0.38,0.56-0.67,1.2-0.86,1.92
	C99.8,21.31,99.7,22.07,99.7,22.88z"/>
<polygon class="st0" points="118.12,18.11 118.12,31.24 115.3,31.24 115.3,14.85 117.97,14.85 "/>
<path class="st0" d="M117.54,22.42l-1.3-0.05c0.01-1.12,0.16-2.16,0.44-3.11c0.28-0.96,0.7-1.79,1.26-2.5
	c0.56-0.71,1.25-1.25,2.07-1.64c0.83-0.39,1.79-0.59,2.88-0.59c0.77,0,1.47,0.11,2.12,0.33c0.65,0.21,1.21,0.55,1.68,1.01
	c0.47,0.46,0.84,1.06,1.11,1.79c0.26,0.73,0.39,1.61,0.39,2.64v10.92h-2.8V20.45c0-0.86-0.15-1.54-0.44-2.06
	c-0.28-0.51-0.69-0.89-1.21-1.12c-0.52-0.24-1.14-0.36-1.85-0.36c-0.83,0-1.52,0.15-2.07,0.44c-0.56,0.29-1,0.7-1.33,1.21
	c-0.33,0.51-0.58,1.11-0.73,1.77C117.61,20.99,117.54,21.69,117.54,22.42z"/>
<path class="st0" d="M128.16,20.88l-1.88,0.58c0.01-0.9,0.16-1.76,0.44-2.59c0.29-0.83,0.71-1.57,1.26-2.21
	c0.56-0.65,1.24-1.16,2.05-1.53c0.81-0.38,1.73-0.58,2.77-0.58c0.88,0,1.66,0.12,2.33,0.35c0.69,0.23,1.26,0.59,1.73,1.08
	c0.47,0.47,0.83,1.09,1.07,1.83c0.24,0.75,0.36,1.64,0.36,2.67v10.77h-2.82v-10.8c0-0.92-0.15-1.63-0.44-2.14
	c-0.28-0.52-0.69-0.87-1.21-1.08c-0.51-0.21-1.13-0.32-1.85-0.32c-0.61,0-1.16,0.11-1.63,0.32c-0.47,0.21-0.87,0.5-1.2,0.88
	c-0.32,0.36-0.57,0.78-0.74,1.26C128.24,19.84,128.16,20.34,128.16,20.88z"/>
<path class="st0" d="M20.73,19.07c7.81-4.9,18.34-1.27,13.93,7.31C30.26,34.95-10,19.06,6.5,26.96c16.5,7.9,22.86,23.99,29.62,8.78
	c6.75-15.21,14.89-48.12-7.99-28.12C5.24,27.62,10.99,25.18,20.73,19.07z"/>
</svg>
